<?xml version="1.0" encoding="UTF-8"?>
<svg version="1.1" baseProfile="tiny-ps" xmlns="http://www.w3.org/2000/svg" width="115" height="116">
<title>ScalaCube</title>
<path d="M0 0 C25.74 0 51.48 0 78 0 C76 6 76 6 72 13 C77.94 13.33 83.88 13.66 90 14 C88.64471977 18.06584068 87.48035898 21.26020027 85.53125 24.94921875 C84.80651489 26.32920044 84.80651489 26.32920044 84.06713867 27.73706055 C83.54998291 28.71070557 83.03282715 29.68435059 82.5 30.6875 C81.96028564 31.71206299 81.42057129 32.73662598 80.86450195 33.79223633 C79.76257222 35.88328962 78.65882176 37.97338448 77.55322266 40.0625 C76.19993997 42.6218677 74.8534052 45.18454122 73.51171875 47.75 C68.27178177 57.76129739 62.93941653 67.72240994 57.59454346 77.677948 C51.65375538 88.74582328 45.79739505 99.85638332 40 111 C39.34 111 38.68 111 38 111 C37.65855957 110.34217529 37.31711914 109.68435059 36.96533203 109.0065918 C27.60297755 90.97347385 18.208248 72.96243338 8.59689331 55.06063843 C3.38460999 45.35014822 -1.81108145 35.63118135 -6.9375 25.875 C-7.4516748 24.90336914 -7.96584961 23.93173828 -8.49560547 22.93066406 C-8.9598291 22.0434668 -9.42405273 21.15626953 -9.90234375 20.2421875 C-10.30960693 19.4672998 -10.71687012 18.69241211 -11.13647461 17.89404297 C-12 16 -12 16 -12 14 C-6.06 13.67 -0.12 13.34 6 13 C5.01 11.22625 4.02 9.4525 3 7.625 C0 2.25 0 2.25 0 0 Z " fill="#FE9500" transform="translate(18,0)"/>
<path d="M0 0 C25.74 0 51.48 0 78 0 C76.6243686 4.1268942 75.65137063 6.90981822 73.53125 10.4765625 C73.04769043 11.30172363 72.56413086 12.12688477 72.06591797 12.97705078 C71.54916504 13.85087402 71.03241211 14.72469727 70.5 15.625 C65.9272749 23.48535914 61.67209411 31.43047266 57.66357422 39.59130859 C54.36094517 46.31247179 50.91202023 52.94625202 47.39794922 59.55908203 C44.86030925 64.33923835 42.40279983 69.15051359 40 74 C39.34 74 38.68 74 38 74 C37.71914551 73.4330542 37.43829102 72.8661084 37.14892578 72.28198242 C27.73890875 53.31115904 17.929305 34.59860272 7.76171875 16.0234375 C7.07601807 14.76998535 7.07601807 14.76998535 6.37646484 13.49121094 C5.43967238 11.79574619 4.49161192 10.10646943 3.53369141 8.42285156 C3.07526855 7.61557617 2.6168457 6.80830078 2.14453125 5.9765625 C1.73178955 5.25807129 1.31904785 4.53958008 0.89379883 3.79931641 C0 2 0 2 0 0 Z " fill="#3A3A39" transform="translate(18,0)"/>
</svg>
