<?xml version="1.0" encoding="UTF-8"?>
<svg version="1.2" baseProfile="tiny-ps" xmlns="http://www.w3.org/2000/svg" width="116" height="116" viewBox="0 0 116 116">
<title>ScalaCube</title>
<desc>ScalaCube company logo featuring an orange and black V-shaped design</desc>
<rect width="116" height="116" fill="#FFFFFF"/>
<g transform="translate(58, 58) scale(0.8) translate(-58, -58)">
<path d="M18 0 C43.74 0 69.48 0 96 0 C94 6 94 6 90 13 C95.94 13.33 101.88 13.66 108 14 C106.64471977 18.06584068 105.48035898 21.26020027 103.53125 24.94921875 C102.80651489 26.32920044 102.80651489 26.32920044 102.06713867 27.73706055 C101.54998291 28.71070557 101.03282715 29.68435059 100.5 30.6875 C99.96028564 31.71206299 99.42057129 32.73662598 98.86450195 33.79223633 C97.76257222 35.88328962 96.65882176 37.97338448 95.55322266 40.0625 C94.19993997 42.6218677 92.8534052 45.18454122 91.51171875 47.75 C86.27178177 57.76129739 80.93941653 67.72240994 75.59454346 77.677948 C69.65375538 88.74582328 63.79739505 99.85638332 58 111 C57.34 111 56.68 111 56 111 C55.65855957 110.34217529 55.31711914 109.68435059 54.96533203 109.0065918 C45.60297755 90.97347385 36.208248 72.96243338 26.59689331 55.06063843 C21.38460999 45.35014822 16.18891855 35.63118135 11.0625 25.875 C10.5483252 24.90336914 10.03415039 23.93173828 9.50439453 22.93066406 C9.0401709 22.0434668 8.57594727 21.15626953 8.09765625 20.2421875 C7.69039307 19.4672998 7.28312988 18.69241211 6.86352539 17.89404297 C6 16 6 16 6 14 C11.94 13.67 17.88 13.34 24 13 C23.01 11.22625 22.02 9.4525 21 7.625 C18 2.25 18 2.25 18 0 Z " fill="#FE9500"/>
<path d="M18 0 C43.74 0 69.48 0 96 0 C94.6243686 4.1268942 93.65137063 6.90981822 91.53125 10.4765625 C91.04769043 11.30172363 90.56413086 12.12688477 90.06591797 12.97705078 C89.54916504 13.85087402 89.03241211 14.72469727 88.5 15.625 C83.9272749 23.48535914 79.67209411 31.43047266 75.66357422 39.59130859 C72.36094517 46.31247179 68.91202023 52.94625202 65.39794922 59.55908203 C62.86030925 64.33923835 60.40279983 69.15051359 58 74 C57.34 74 56.68 74 56 74 C55.71914551 73.4330542 55.43829102 72.8661084 55.14892578 72.28198242 C45.73890875 53.31115904 35.929305 34.59860272 25.76171875 16.0234375 C25.07601807 14.76998535 25.07601807 14.76998535 24.37646484 13.49121094 C23.43967238 11.79574619 22.49161192 10.10646943 21.53369141 8.42285156 C21.07526855 7.61557617 20.6168457 6.80830078 20.14453125 5.9765625 C19.73178955 5.25807129 19.31904785 4.53958008 18.89379883 3.79931641 C18 2 18 2 18 0 Z " fill="#3A3A39"/>
</g>
</svg>